<svg width="24" height="22" viewBox="0 0 24 22" fill="none" xmlns="http://www.w3.org/2000/svg">
<g id="google-icon 1" clip-path="url(#clip0_43644_229)">
<path id="Vector" d="M23.9873 10.9348C23.9873 10.0552 23.9057 9.4134 23.729 8.7478H12.239V12.7176H18.9833C18.8474 13.7041 18.1132 15.1899 16.4814 16.1882L16.4585 16.3211L20.0915 18.7812L20.3431 18.8031C22.6547 16.9371 23.9873 14.1914 23.9873 10.9348Z" fill="#4285F4"/>
<path id="Vector_2" d="M12.2391 21.3943C15.5433 21.3943 18.3171 20.4434 20.3432 18.8032L16.4815 16.1883C15.4481 16.8182 14.0611 17.258 12.2391 17.258C9.00287 17.258 6.25618 15.392 5.27706 12.8127L5.13354 12.8234L1.35598 15.3789L1.30658 15.4989C3.319 18.9933 7.45268 21.3943 12.2391 21.3943Z" fill="#34A853"/>
<path id="Vector_3" d="M5.27702 12.8128C5.01867 12.1473 4.86916 11.4341 4.86916 10.6972C4.86916 9.96022 5.01867 9.2471 5.26343 8.58151L5.25659 8.43975L1.4317 5.84326L1.30655 5.89529C0.47714 7.34537 0.0012207 8.97375 0.0012207 10.6972C0.0012207 12.4206 0.47714 14.0489 1.30655 15.499L5.27702 12.8128Z" fill="#FBBC05"/>
<path id="Vector_4" d="M12.239 4.13621C14.537 4.13621 16.0871 5.00386 16.971 5.72894L20.4247 2.78126C18.3036 1.05784 15.5432 0 12.239 0C7.45266 0 3.319 2.4009 1.30658 5.89528L5.26345 8.58149C6.25616 6.00229 9.00285 4.13621 12.239 4.13621Z" fill="#EB4335"/>
</g>
<defs>
<clipPath id="clip0_43644_229">
<rect width="24" height="21.4681" fill="white"/>
</clipPath>
</defs>
</svg>
